<?xml version="1.0" encoding="UTF-8"?><svg id="a" xmlns="http://www.w3.org/2000/svg" viewBox="0 0 360 360"><path d="M178.3,273.64c-73.51,0-133.32-59.81-133.32-133.32S104.79,7.01,178.3,7.01s133.32,59.81,133.32,133.32-59.81,133.32-133.32,133.32ZM178.3,12.92c-70.25,0-127.4,57.15-127.4,127.4s57.15,127.4,127.4,127.4,127.4-57.15,127.4-127.4S248.55,12.92,178.3,12.92Z" fill="#fff"/><path d="M178.3,222.64c-45.39,0-82.31-36.93-82.31-82.31s36.92-82.31,82.31-82.31,82.31,36.92,82.31,82.31-36.92,82.31-82.31,82.31ZM178.3,63.93c-42.12,0-76.39,34.27-76.39,76.39s34.27,76.39,76.39,76.39,76.39-34.27,76.39-76.39-34.27-76.39-76.39-76.39Z" fill="#fff"/><path d="M226.33,352.99c-73.51,0-133.32-59.81-133.32-133.32s59.81-133.32,133.32-133.32,133.32,59.81,133.32,133.32-59.81,133.32-133.32,133.32ZM226.33,92.28c-70.25,0-127.4,57.15-127.4,127.4s57.15,127.4,127.4,127.4,127.4-57.15,127.4-127.4-57.15-127.4-127.4-127.4Z" fill="#fff"/><path d="M226.33,301.99c-45.39,0-82.31-36.92-82.31-82.31s36.92-82.31,82.31-82.31,82.31,36.92,82.31,82.31-36.92,82.31-82.31,82.31ZM226.33,143.28c-42.12,0-76.39,34.27-76.39,76.39s34.27,76.39,76.39,76.39,76.39-34.27,76.39-76.39-34.27-76.39-76.39-76.39Z" fill="#fff"/><path d="M133.68,352.99C60.16,352.99.35,293.19.35,219.68S60.16,86.36,133.68,86.36s133.32,59.81,133.32,133.32-59.81,133.32-133.32,133.32ZM133.68,92.28c-70.25,0-127.4,57.15-127.4,127.4s57.15,127.4,127.4,127.4,127.4-57.15,127.4-127.4-57.15-127.4-127.4-127.4Z" fill="#fff"/><path d="M133.67,301.99c-45.39,0-82.31-36.92-82.31-82.31s36.92-82.31,82.31-82.31,82.31,36.92,82.31,82.31-36.92,82.31-82.31,82.31ZM133.67,143.28c-42.12,0-76.39,34.27-76.39,76.39s34.27,76.39,76.39,76.39,76.39-34.27,76.39-76.39-34.27-76.39-76.39-76.39Z" fill="#fff"/></svg>