<?xml version="1.0" encoding="UTF-8"?><svg id="a" xmlns="http://www.w3.org/2000/svg" viewBox="0 0 356.54 85.75"><path d="M71.37,25.58c-2.64-13.83-14.81-24.31-29.39-24.31S14.78,12.13,12.45,26.32c-6.36,5.49-10.4,13.61-10.4,22.65,0,16.5,13.43,29.93,29.93,29.93,3.65,0,7.14-.66,10.38-1.86,3.23,1.2,6.73,1.86,10.38,1.86,16.5,0,29.93-13.43,29.93-29.93,0-9.46-4.42-17.91-11.29-23.4ZM41.97,2.73c13.3,0,24.5,9.17,27.61,21.52-3.94-2.69-8.55-4.47-13.52-5.02-3.4-3.99-8.45-6.54-14.09-6.54s-10.79,2.59-14.19,6.65c-5.03.71-9.66,2.67-13.57,5.56C17.09,12.22,28.44,2.73,41.97,2.73ZM70.44,31.2c0,3.13-.51,6.13-1.45,8.95-1.91-3.5-4.92-6.31-8.56-7.98.02-.32.05-.64.05-.97,0-3.82-1.16-7.37-3.15-10.32,4.72.77,9.06,2.71,12.7,5.5.27,1.57.42,3.17.42,4.82ZM69.78,48.97c0,7.95-5.47,14.62-12.84,16.5,2.28-3.44,3.87-7.38,4.57-11.62,3.15-2.72,5.72-6.07,7.52-9.86.48,1.58.75,3.25.75,4.99ZM15.42,44.99c1.95,3.73,4.65,7,7.91,9.6.75,3.96,2.29,7.64,4.44,10.88-7.37-1.88-12.84-8.55-12.84-16.5,0-1.37.18-2.7.49-3.98ZM13.81,27.07c3.6-2.99,7.95-5.11,12.72-6.04-1.93,2.92-3.06,6.41-3.06,10.17,0,.45.04.89.07,1.33-3.61,1.86-6.52,4.87-8.27,8.54-1.14-3.08-1.77-6.4-1.77-9.87,0-1.4.11-2.78.3-4.12ZM59,31.58c-1.07-.39-2.17-.67-3.32-.86-2.96-3.84-6.83-6.94-11.28-8.97,2.64-.81,5.44-1.25,8.34-1.25.87,0,1.73.05,2.59.12,2.31,2.91,3.7,6.58,3.7,10.57,0,.13-.02.26-.02.39ZM60.14,53.1c-3.6,2.99-7.95,5.11-12.72,6.04,1.93-2.92,3.06-6.41,3.06-10.17,0-.45-.04-.89-.07-1.33,3.61-1.86,6.52-4.87,8.27-8.54,1.14,3.08,1.77,6.4,1.77,9.87,0,1.4-.11,2.78-.3,4.12ZM41.97,59.67c-.87,0-1.73-.05-2.59-.12-2.31-2.91-3.7-6.58-3.7-10.57,0-.13.02-.26.02-.39,1.96.71,4.06,1.12,6.27,1.12,2.48,0,4.85-.5,7.01-1.39,0,.22.03.44.03.66,0,3.95-1.37,7.59-3.63,10.48-1.12.13-2.26.21-3.41.21ZM43.99,61.05c-.51.51-1.06.97-1.63,1.41-.55-.43-1.09-.88-1.58-1.36.4.02.8.03,1.2.03.68,0,1.35-.03,2.01-.08ZM24.26,48.97c0-3.13.51-6.13,1.45-8.95,1.91,3.5,4.92,6.31,8.56,7.98-.02.32-.05.64-.05.97,0,3.82,1.16,7.37,3.15,10.32-4.72-.77-9.06-2.71-12.7-5.5-.27-1.57-.42-3.17-.42-4.82ZM29.83,32.08c.7-.09,1.42-.15,2.14-.15,3.36,0,6.48.99,9.12,2.67-3.57,2.89-6.03,7.09-6.68,11.85-3.54-1.76-6.39-4.71-8-8.33.89-2.16,2.05-4.19,3.42-6.04ZM25.68,36.18c-.28-.9-.47-1.83-.59-2.79.86-.38,1.76-.69,2.69-.92-.78,1.18-1.49,2.42-2.1,3.71ZM31.08,30.51c3.02-3.53,6.88-6.32,11.27-8.04,4.39,1.73,8.25,4.51,11.27,8.04-.3-.01-.59-.05-.89-.05-3.84,0-7.42,1.18-10.38,3.19-2.96-2.01-6.53-3.19-10.38-3.19-.3,0-.6.03-.89.05ZM42.35,35.48c3.5,2.7,5.91,6.71,6.51,11.29-2.11.94-4.44,1.47-6.89,1.47-2.18,0-4.26-.43-6.17-1.17.53-4.71,2.98-8.83,6.55-11.59ZM50.24,46.09c-.73-4.62-3.15-8.67-6.63-11.5,2.64-1.68,5.77-2.67,9.12-2.67.73,0,1.44.06,2.14.15,1.18,1.59,2.19,3.32,3.02,5.14-1.44,3.78-4.17,6.93-7.66,8.87ZM56.93,32.47c.67.17,1.33.38,1.97.63-.08.71-.21,1.4-.38,2.08-.49-.93-1.02-1.84-1.59-2.71ZM52.73,19.04c-3.65,0-7.14.66-10.38,1.86-3.23-1.2-6.73-1.86-10.38-1.86-.68,0-1.35.03-2.01.08,3.08-3.06,7.33-4.96,12.01-4.96s8.88,1.88,11.96,4.92c-.4-.02-.8-.03-1.2-.03ZM31.98,20.5c2.9,0,5.7.44,8.34,1.25-4.45,2.04-8.32,5.14-11.28,8.97-1.41.23-2.78.6-4.07,1.13,0-.22-.03-.44-.03-.66,0-3.95,1.37-7.59,3.63-10.48,1.12-.13,2.26-.21,3.41-.21ZM23.72,34.08c.22,1.42.59,2.78,1.12,4.07-1.31,3.36-2.03,7.01-2.03,10.83,0,1.16.07,2.3.2,3.43-2.93-2.62-5.3-5.84-6.95-9.45,1.44-3.78,4.17-6.93,7.66-8.87ZM25.12,55.92c3.94,2.69,8.55,4.47,13.52,5.02.74.88,1.57,1.68,2.46,2.41-2.64,1.68-5.77,2.67-9.12,2.67-.73,0-1.44-.06-2.14-.15-2.17-2.94-3.79-6.3-4.71-9.95ZM31.98,67.48c3.84,0,7.42-1.18,10.38-3.19,2.96,2.01,6.53,3.19,10.38,3.19.3,0,.6-.03.89-.05-3.02,3.53-6.88,6.32-11.27,8.04-4.39-1.73-8.25-4.51-11.27-8.04.3.01.59.05.89.05ZM52.73,66.02c-3.36,0-6.48-.99-9.12-2.67.93-.76,1.79-1.6,2.56-2.52,5.03-.71,9.66-2.67,13.57-5.56-.88,3.89-2.56,7.49-4.86,10.6-.7.09-1.42.15-2.14.15ZM61.78,51.62c.08-.87.12-1.75.12-2.64,0-4.19-.87-8.18-2.43-11.81.38-1.11.65-2.26.81-3.44,3.54,1.76,6.39,4.71,8,8.33-1.5,3.63-3.73,6.88-6.51,9.57ZM31.98,77.44c-15.7,0-28.47-12.77-28.47-28.47,0-8,3.32-15.24,8.66-20.42-.08.87-.12,1.75-.12,2.64,0,4.19.87,8.19,2.43,11.81-.64,1.87-1,3.88-1,5.96,0,9.2,6.75,16.83,15.56,18.25,2.96,3.84,6.83,6.93,11.28,8.97-2.64.81-5.44,1.25-8.34,1.25ZM52.73,77.44c-2.9,0-5.7-.44-8.34-1.25,4.45-2.04,8.32-5.14,11.28-8.97,8.81-1.42,15.56-9.05,15.56-18.25,0-2.46-.49-4.8-1.37-6.95,1.31-3.36,2.03-7.01,2.03-10.82,0-1.16-.07-2.3-.2-3.43,5.83,5.22,9.5,12.79,9.5,21.21,0,15.7-12.77,28.47-28.47,28.47Z" fill="#c2912d"/><path d="M271.94,77.33c0-4.25,3.09-7.15,6.97-7.15,2.24,0,3.9.97,5.08,2.45l-1,.64c-.87-1.2-2.38-2.01-4.08-2.01-3.21,0-5.72,2.47-5.72,6.07s2.51,6.07,5.72,6.07c1.7,0,3.21-.81,4.08-2.01l1,.62c-1.22,1.51-2.84,2.47-5.08,2.47-3.88,0-6.97-2.9-6.97-7.15Z" fill="#c2912d"/><path d="M296.34,77.66h-8.77v6.57h-1.18v-13.83h1.18v6.18h8.77v-6.18h1.2v13.83h-1.2v-6.57Z" fill="#c2912d"/><path d="M300.96,70.41h1.2v8.5c0,2.8,1.47,4.5,4.19,4.5s4.19-1.7,4.19-4.5v-8.5h1.2v8.52c0,3.42-1.82,5.56-5.39,5.56s-5.39-2.16-5.39-5.56v-8.52Z" fill="#c2912d"/><path d="M319.41,78.51h-3.05v5.72h-1.18v-13.83h5.16c2.38,0,4.21,1.51,4.21,4.04s-1.78,3.9-3.84,3.98l4,5.8h-1.43l-3.88-5.72ZM320.24,71.49h-3.88v5.95h3.88c1.82,0,3.07-1.24,3.07-2.99s-1.24-2.96-3.07-2.96Z" fill="#c2912d"/><path d="M326.98,77.33c0-4.25,3.09-7.15,6.97-7.15,2.24,0,3.9.97,5.08,2.45l-1,.64c-.87-1.2-2.38-2.01-4.08-2.01-3.21,0-5.72,2.47-5.72,6.07s2.51,6.07,5.72,6.07c1.7,0,3.21-.81,4.08-2.01l1,.62c-1.22,1.51-2.84,2.47-5.08,2.47-3.88,0-6.97-2.9-6.97-7.15Z" fill="#c2912d"/><path d="M351.38,77.66h-8.77v6.57h-1.18v-13.83h1.18v6.18h8.77v-6.18h1.2v13.83h-1.2v-6.57Z" fill="#c2912d"/><path d="M117.52,22.25c0,1.45.08,2.89.25,4.3.17,1.41.43,2.81.78,4.18l-2.3.44c-.33-2.44-1.27-4.24-2.81-5.42-1.54-1.18-3.72-1.77-6.52-1.77-2.59,0-4.7.63-6.32,1.89-1.62,1.26-2.43,2.88-2.43,4.86,0,3.26,3.46,6.05,10.37,8.37.92.29,1.63.53,2.12.71,3.16,1.1,5.49,2.51,6.98,4.23,1.49,1.72,2.24,3.84,2.24,6.38,0,3.91-1.48,7.07-4.45,9.5-2.97,2.43-6.89,3.64-11.78,3.64-1.87,0-3.69-.15-5.46-.46-1.78-.3-3.58-.78-5.41-1.43.02-.2.03-.43.04-.69,0-.27.01-.65.01-1.16,0-1.39-.08-2.77-.24-4.12-.16-1.36-.39-2.71-.71-4.06l2.65-.62c.33,3.22,1.35,5.58,3.03,7.07,1.69,1.49,4.19,2.24,7.51,2.24,2.91,0,5.27-.73,7.1-2.19,1.83-1.46,2.74-3.34,2.74-5.64,0-3.26-2.85-5.79-8.54-7.6-.81-.26-1.43-.46-1.89-.62-3.95-1.28-6.77-2.84-8.48-4.68-1.71-1.85-2.56-4.2-2.56-7.07,0-3.38,1.34-6.2,4.01-8.45,2.67-2.26,6.02-3.39,10.04-3.39,1.47,0,2.97.12,4.48.35,1.51.24,3.36.65,5.54,1.24Z" fill="#1b2a41"/><path d="M146.65,20.01c2.98,0,5.65.43,8,1.28,2.35.85,4.47,2.18,6.38,3.96,2.28,2.16,4.02,4.66,5.23,7.51,1.21,2.85,1.81,5.87,1.81,9.07s-.64,6.34-1.91,9.25c-1.28,2.91-3.09,5.41-5.45,7.51-1.89,1.69-4.08,3.01-6.58,3.96-2.5.95-5.01,1.43-7.53,1.43-3.14,0-6.03-.58-8.68-1.74-2.64-1.16-4.97-2.88-7-5.15-1.85-2.08-3.25-4.42-4.23-7.01-.97-2.59-1.46-5.32-1.46-8.19,0-3.1.58-6.03,1.75-8.79,1.17-2.76,2.86-5.18,5.08-7.26,2-1.89,4.26-3.33,6.77-4.33,2.51-1,5.12-1.5,7.81-1.5ZM161.56,42.87c0-5.71-1.47-10.4-4.42-14.07s-6.66-5.49-11.13-5.49-7.75,1.57-10.35,4.71c-2.6,3.14-3.9,7.34-3.9,12.61,0,5.85,1.48,10.65,4.43,14.4,2.96,3.75,6.65,5.63,11.09,5.63s7.73-1.61,10.35-4.85c2.62-3.23,3.93-7.55,3.93-12.95Z" fill="#1b2a41"/><path d="M180.68,60.95h1.03c1.39,0,2.39-.17,2.98-.52.59-.34,1-.98,1.24-1.9.18-.61.3-2.82.37-6.63.07-3.81.1-9.74.1-17.79v-9.4h-5.95c-2.89,0-4.84.39-5.85,1.16-1.01.78-1.76,2.41-2.25,4.9l-1.91-.41c.37-1.71.66-3.39.85-5.04.2-1.65.29-3.27.29-4.86.59.37,1.78.64,3.58.8,1.8.16,4.94.24,9.44.24h7.19c5.97,0,9.81-.07,11.53-.22,1.72-.15,2.92-.42,3.61-.81,0,.2-.01.51-.03.93-.02.42-.03.74-.03.96,0,1.24.05,2.51.16,3.83.11,1.32.27,2.67.49,4.07l-1.86.35c-.24-2.22-.84-3.73-1.81-4.54-.97-.8-3.02-1.26-6.14-1.36h-5.57c-.02,1.12-.04,2.7-.06,4.74-.04,5.36-.06,8.96-.06,10.81,0,6.97.04,11.69.13,14.17.09,2.47.24,4.02.46,4.62.26.71.68,1.2,1.27,1.47.59.28,1.49.41,2.71.41h1.03v2.06c-1.63-.08-3.17-.14-4.61-.18-1.44-.04-2.74-.06-3.87-.06-1,0-2.23.02-3.7.06-1.46.04-3.05.1-4.76.18v-2.06Z" fill="#1b2a41"/><path d="M211.78,20.98c3.44.12,6.51.21,9.22.27,2.71.06,5.05.09,7.01.09,2.18,0,4.38-.03,6.61-.09,2.23-.06,4.49-.15,6.79-.27.02,1.47.08,2.98.18,4.52.1,1.54.22,3.09.35,4.64l-1.97.18c-.16-2.36-.88-3.95-2.18-4.79-1.3-.83-4.09-1.25-8.4-1.25-1.1,0-3.11.03-6.04.09-.59.02-1.02.03-1.3.03-.04,2.36-.1,5.24-.18,8.66-.08,3.42-.13,5.64-.15,6.66h.91c1.16,0,2.61.01,4.34.04s2.9.04,3.49.04c2.85,0,4.73-.27,5.64-.8.91-.53,1.41-1.51,1.49-2.95l1.86.18c-.14,1.22-.24,2.35-.31,3.39-.07,1.04-.1,2-.1,2.89,0,.51.05,1.61.15,3.3.04.61.07,1.07.09,1.38l-1.91.06v-.24c0-1.67-.49-2.8-1.46-3.39-.97-.59-3.25-.88-6.82-.88h-7.36c0,.96-.01,2.29-.03,3.99-.02,1.7-.03,2.92-.03,3.67,0,1.3,0,2.65.03,4.05.02,1.4.06,3.05.12,4.93.98.12,2.1.21,3.34.27,1.25.06,2.62.09,4.11.09,4.93,0,8.17-.48,9.74-1.43,1.56-.95,2.8-2.78,3.73-5.49l2.12.71c-.59,1.63-1.11,3.23-1.56,4.8-.45,1.57-.84,3.13-1.18,4.68-3.08-.12-5.95-.21-8.6-.27-2.65-.06-5.05-.09-7.19-.09-2.93,0-7.64.11-14.14.32l-1.06.03v-1.91c.14.02.27.03.4.04.13.01.32.01.57.01,2.61,0,3.94-3.67,3.98-11.02.02-1.85.04-3.29.06-4.33l.12-8.04c.02-1.73.03-3.41.04-5.04,0-1.63.01-3.4.01-5.3,0-1.69-.31-2.86-.94-3.51-.63-.65-1.75-.97-3.36-.97h-.24v-1.97Z" fill="#1b2a41"/><path d="M249.37,61.1c.14.02.27.03.4.04.13.01.32.01.57.01,2.61,0,3.94-3.67,3.98-11.02.02-1.85.04-3.29.06-4.33l.12-8.04c.02-1.73.03-3.41.04-5.04,0-1.63.01-3.4.01-5.3,0-1.69-.31-2.86-.94-3.51-.63-.65-1.75-.97-3.36-.97h-.24v-2.06c1.32.1,2.62.17,3.9.21,1.29.04,2.54.06,3.76.06,1.32,0,2.95-.04,4.9-.13,1.95-.09,3.26-.13,3.9-.13,4.03,0,7.32,1.06,9.9,3.18,2.57,2.12,3.86,4.78,3.86,7.98,0,2.38-.64,4.49-1.93,6.35-1.29,1.86-3.22,3.44-5.79,4.76l5.51,8.34c.2.31.49.77.88,1.36,3.81,5.81,6.93,8.72,9.37,8.72h.29v1.68c-.28.02-.69.06-1.24.12-1.28.12-2.21.18-2.8.18-2.08,0-3.73-.28-4.93-.84s-2.4-1.64-3.58-3.26c-.2-.25-1.28-2-3.25-5.24s-3.96-6.29-5.96-9.16c-.75.08-1.54.14-2.39.18-.84.04-1.78.06-2.8.06h-1.77v9.04c0,2.95.3,4.81.91,5.58.61.78,1.82,1.16,3.62,1.16.06,0,.14,0,.24-.03.1-.02.18-.03.24-.03.08,0,.14.01.19.03.05.02.08.03.1.03v1.94c-1.39-.08-2.78-.14-4.15-.18-1.37-.04-2.74-.06-4.09-.06-.73,0-1.75.02-3.06.06-1.32.04-2.81.1-4.48.18v-1.91ZM259.86,42.25c.94.1,1.83.17,2.67.21.83.04,1.58.06,2.22.06.55,0,1.18-.01,1.89-.04.71-.03,1.47-.08,2.3-.16,1.89-1.14,3.27-2.46,4.15-3.96.88-1.5,1.33-3.29,1.33-5.38,0-2.73-.88-4.92-2.65-6.57-1.77-1.65-4.14-2.47-7.13-2.47-.81,0-1.59.03-2.36.1-.77.07-1.52.17-2.27.31-.06,2.44-.1,4.94-.12,7.51-.02,2.57-.03,6.04-.03,10.4Z" fill="#1b2a41"/><path d="M291.79,20.98c1.37.08,2.74.14,4.09.18,1.36.04,2.68.06,3.98.06,1.1,0,2.33-.02,3.68-.06,1.36-.04,2.79-.1,4.3-.18v2h-.5c-1.28,0-2.23.15-2.87.44-.64.29-1.09.79-1.34,1.47-.16.45-.27,1.18-.34,2.2-.07,1.01-.1,2.66-.1,4.94v20.55c0,2.32.05,3.95.16,4.89.11.94.28,1.64.52,2.09.26.49.71.84,1.37,1.06.66.22,1.59.32,2.78.32h.62v2.06c-1.69-.08-3.25-.14-4.68-.18-1.43-.04-2.63-.06-3.59-.06-1.14,0-2.43.02-3.86.06-1.43.04-2.94.1-4.51.18v-2.06h.59c1.22,0,2.15-.11,2.8-.32.65-.22,1.1-.57,1.36-1.06.27-.53.47-1.4.57-2.61.11-1.21.16-3.4.16-6.56v-16.18c0-3.09-.04-5.28-.12-6.59-.08-1.31-.21-2.22-.38-2.73-.24-.69-.66-1.18-1.28-1.47s-1.58-.44-2.87-.44h-.53v-2Z" fill="#1b2a41"/><path d="M331.7,20.98h5.07c2.55,7.8,4.97,14.93,7.26,21.37,2.29,6.45,4.09,11.29,5.41,14.53.79,1.87,1.46,3.02,2.03,3.45.57.43,1.38.65,2.44.65h.59v2.03c-1.53-.08-2.93-.14-4.2-.18-1.27-.04-2.33-.06-3.2-.06-1.1,0-2.31.02-3.62.06-1.32.04-2.71.1-4.18.18v-2.03h.56c1.39,0,2.35-.16,2.86-.49.51-.33.77-.92.77-1.79,0-.31-.04-.66-.12-1.05-.08-.38-.21-.84-.38-1.37l-2.89-9.03c-.75,0-1.77,0-3.06-.03-2.36-.06-3.87-.09-4.54-.09-1.34,0-2.6,0-3.79.01-1.19.01-2.42.03-3.7.07-1.39,3.52-2.35,6.09-2.86,7.7-.51,1.61-.77,2.77-.77,3.45,0,.96.25,1.64.77,2.02.51.38,1.42.58,2.74.58h.8v2.03c-1.43-.08-2.77-.14-4.02-.18-1.25-.04-2.36-.06-3.34-.06-.79,0-1.77.02-2.95.06-1.18.04-2.46.1-3.83.18v-2c1.39-.04,2.5-.32,3.31-.84.81-.52,1.53-1.39,2.14-2.61,1.1-2.3,3.05-6.9,5.85-13.81,2.8-6.91,5.75-14.5,8.85-22.77ZM333.02,26.52l-6.75,17.62c.37,0,.91.01,1.62.03,2.22.06,3.73.09,4.54.09.98,0,2.76-.03,5.33-.09.57-.02,1-.03,1.3-.03l-6.04-17.62Z" fill="#1b2a41"/></svg>