<?xml version="1.0" encoding="UTF-8"?><svg id="a" xmlns="http://www.w3.org/2000/svg" viewBox="0 0 210.59 202.68"><path d="M104.32,155.42c-42.45,0-76.99-34.54-76.99-76.99S61.87,1.44,104.32,1.44s76.99,34.54,76.99,76.99-34.54,76.99-76.99,76.99ZM104.32,4.86C63.75,4.86,30.75,37.86,30.75,78.43s33,73.57,73.57,73.57,73.57-33,73.57-73.57S144.88,4.86,104.32,4.86Z" fill="#fff"/><path d="M104.32,125.96c-26.21,0-47.53-21.32-47.53-47.53s21.32-47.53,47.53-47.53,47.53,21.32,47.53,47.53-21.32,47.53-47.53,47.53ZM104.32,34.32c-24.32,0-44.11,19.79-44.11,44.11s19.79,44.11,44.11,44.11,44.11-19.79,44.11-44.11-19.79-44.11-44.11-44.11Z" fill="#fff"/><path d="M132.05,201.24c-42.45,0-76.99-34.54-76.99-76.99s34.54-76.99,76.99-76.99,76.99,34.54,76.99,76.99-34.54,76.99-76.99,76.99ZM132.05,50.68c-40.57,0-73.57,33-73.57,73.57s33,73.57,73.57,73.57,73.57-33,73.57-73.57-33-73.57-73.57-73.57Z" fill="#fff"/><path d="M132.05,171.78c-26.21,0-47.53-21.32-47.53-47.53s21.32-47.53,47.53-47.53,47.53,21.32,47.53,47.53-21.32,47.53-47.53,47.53ZM132.05,80.14c-24.32,0-44.11,19.79-44.11,44.11s19.79,44.11,44.11,44.11,44.11-19.79,44.11-44.11-19.79-44.11-44.11-44.11Z" fill="#fff"/><path d="M78.55,201.24C36.09,201.24,1.56,166.7,1.56,124.25S36.09,47.26,78.55,47.26s76.99,34.54,76.99,76.99-34.54,76.99-76.99,76.99ZM78.55,50.68C37.98,50.68,4.98,83.69,4.98,124.25s33,73.57,73.57,73.57,73.57-33,73.57-73.57S119.11,50.68,78.55,50.68Z" fill="#fff"/><path d="M78.55,171.78c-26.21,0-47.53-21.32-47.53-47.53s21.32-47.53,47.53-47.53,47.53,21.32,47.53,47.53-21.32,47.53-47.53,47.53ZM78.55,80.14c-24.32,0-44.11,19.79-44.11,44.11s19.79,44.11,44.11,44.11,44.11-19.79,44.11-44.11-19.79-44.11-44.11-44.11Z" fill="#fff"/></svg>