<?xml version="1.0" encoding="UTF-8"?><svg id="a" xmlns="http://www.w3.org/2000/svg" viewBox="0 0 472.07 325.66"><defs><style>.b{stroke-dasharray:2.89;stroke-width:.89px;}.b,.c,.d,.e{fill:none;stroke-miterlimit:10;}.b,.d{stroke:#ccc;}.c,.e{stroke:red;}.f{fill:#1b2a41;}.d{stroke-dasharray:3.21;stroke-width:.99px;}.e{stroke-dasharray:1.93 1.93;}.g{fill:red;}</style></defs><rect class="d" x="105.04" y="135.84" width="258.11" height="60.46"/><rect class="b" x="46.29" y="72.79" width="377.66" height="180.98"/><line class="c" x1="135.17" y1="138" x2="135.17" y2="139"/><line class="e" x1="135.17" y1="140.94" x2="135.17" y2="186.33"/><line class="c" x1="135.17" y1="187.3" x2="135.17" y2="188.3"/><polygon class="g" points="132.67 138.73 135.17 134.42 137.66 138.73 132.67 138.73"/><polygon class="g" points="132.67 187.57 135.17 191.88 137.66 187.57 132.67 187.57"/><line class="c" x1="135.17" y1="76.37" x2="135.17" y2="77.37"/><line class="e" x1="135.17" y1="79.31" x2="135.17" y2="124.7"/><line class="c" x1="135.17" y1="125.67" x2="135.17" y2="126.67"/><polygon class="g" points="132.67 77.1 135.17 72.79 137.66 77.1 132.67 77.1"/><polygon class="g" points="132.67 125.94 135.17 130.25 137.66 125.94 132.67 125.94"/><line class="c" x1="157.48" y1="199.89" x2="157.48" y2="200.89"/><line class="e" x1="157.48" y1="202.82" x2="157.48" y2="248.21"/><line class="c" x1="157.48" y1="249.18" x2="157.48" y2="250.18"/><polygon class="g" points="154.98 200.62 157.48 196.3 159.97 200.62 154.98 200.62"/><polygon class="g" points="154.98 249.45 157.48 253.77 159.97 249.45 154.98 249.45"/><line class="c" x1="49.88" y1="162.43" x2="50.88" y2="162.43"/><line class="e" x1="52.81" y1="162.43" x2="98.21" y2="162.43"/><line class="c" x1="99.17" y1="162.43" x2="100.17" y2="162.43"/><polygon class="g" points="50.61 164.92 46.29 162.43 50.61 159.94 50.61 164.92"/><polygon class="g" points="99.44 164.92 103.76 162.43 99.44 159.94 99.44 164.92"/><line class="c" x1="370.08" y1="162.43" x2="371.08" y2="162.43"/><line class="e" x1="373.01" y1="162.43" x2="418.4" y2="162.43"/><line class="c" x1="419.37" y1="162.43" x2="420.37" y2="162.43"/><polygon class="g" points="370.81 164.92 366.49 162.43 370.81 159.94 370.81 164.92"/><polygon class="g" points="419.64 164.92 423.96 162.43 419.64 159.94 419.64 164.92"/><path class="f" d="M157.46,153.5c-1.92-10.04-10.76-17.66-21.35-17.66s-19.75,7.89-21.45,18.2c-4.62,3.99-7.56,9.89-7.56,16.46,0,11.99,9.75,21.74,21.74,21.74,2.65,0,5.19-.48,7.54-1.35,2.35.87,4.89,1.35,7.54,1.35,11.99,0,21.74-9.75,21.74-21.74,0-6.87-3.21-13.01-8.21-17ZM136.11,136.9c9.66,0,17.8,6.66,20.06,15.64-2.86-1.96-6.21-3.24-9.82-3.65-2.47-2.9-6.14-4.75-10.24-4.75s-7.84,1.88-10.31,4.83c-3.65.51-7.02,1.94-9.86,4.04,2.09-9.21,10.33-16.11,20.17-16.11ZM156.79,157.59c0,2.27-.37,4.46-1.05,6.5-1.39-2.54-3.58-4.58-6.22-5.8.01-.23.04-.47.04-.7,0-2.77-.84-5.35-2.29-7.5,3.43.56,6.58,1.97,9.23,4,.19,1.14.3,2.31.3,3.5ZM156.3,170.5c0,5.77-3.98,10.62-9.33,11.99,1.66-2.5,2.81-5.36,3.32-8.44,2.28-1.97,4.16-4.41,5.47-7.17.35,1.15.54,2.36.54,3.62ZM116.82,167.61c1.41,2.71,3.38,5.09,5.75,6.98.55,2.87,1.66,5.55,3.22,7.9-5.35-1.36-9.33-6.21-9.33-11.99,0-1,.13-1.96.36-2.89ZM115.64,154.59c2.62-2.18,5.78-3.72,9.24-4.39-1.4,2.12-2.22,4.66-2.22,7.39,0,.33.03.64.05.96-2.62,1.35-4.74,3.54-6.01,6.21-.83-2.24-1.28-4.65-1.28-7.17,0-1.02.08-2.02.22-3ZM148.47,157.87c-.77-.28-1.58-.49-2.41-.62-2.15-2.79-4.96-5.04-8.2-6.52,1.92-.59,3.95-.91,6.06-.91.63,0,1.26.03,1.88.09,1.68,2.11,2.69,4.78,2.69,7.68,0,.09-.01.19-.01.28ZM149.31,173.5c-2.62,2.17-5.78,3.72-9.24,4.39,1.4-2.12,2.22-4.66,2.22-7.39,0-.33-.03-.64-.05-.96,2.62-1.35,4.74-3.54,6-6.21.83,2.24,1.28,4.65,1.28,7.17,0,1.02-.08,2.02-.22,3ZM136.11,178.27c-.63,0-1.26-.03-1.88-.09-1.68-2.11-2.69-4.78-2.69-7.68,0-.09.01-.19.01-.28,1.42.52,2.95.81,4.55.81,1.8,0,3.52-.36,5.1-1.01,0,.16.02.32.02.48,0,2.87-.99,5.51-2.64,7.62-.81.1-1.64.15-2.48.15ZM137.57,179.28c-.37.37-.77.7-1.19,1.02-.4-.31-.79-.64-1.15-.99.29.01.58.02.87.02.49,0,.98-.02,1.46-.05ZM123.24,170.5c0-2.27.37-4.46,1.05-6.5,1.39,2.55,3.58,4.58,6.22,5.8-.01.23-.04.47-.04.7,0,2.77.84,5.35,2.29,7.5-3.43-.56-6.58-1.97-9.23-4-.2-1.14-.3-2.31-.3-3.5ZM127.29,158.23c.51-.06,1.03-.11,1.56-.11,2.44,0,4.71.72,6.63,1.94-2.59,2.1-4.38,5.15-4.85,8.61-2.57-1.28-4.64-3.42-5.81-6.05.65-1.57,1.49-3.04,2.48-4.39ZM124.27,161.21c-.2-.65-.34-1.33-.43-2.02.62-.28,1.28-.5,1.95-.67-.57.86-1.08,1.76-1.52,2.69ZM128.19,157.09c2.19-2.57,5-4.59,8.19-5.84,3.19,1.25,6,3.28,8.19,5.84-.22-.01-.43-.03-.65-.03-2.79,0-5.39.86-7.54,2.32-2.15-1.46-4.75-2.32-7.54-2.32-.22,0-.43.02-.65.03ZM136.38,160.7c2.54,1.96,4.3,4.87,4.73,8.2-1.53.68-3.22,1.07-5.01,1.07-1.58,0-3.09-.31-4.48-.85.38-3.42,2.17-6.42,4.76-8.42ZM142.11,168.41c-.53-3.35-2.29-6.3-4.81-8.35,1.92-1.22,4.19-1.94,6.63-1.94.53,0,1.05.04,1.56.11.86,1.16,1.59,2.41,2.2,3.74-1.04,2.75-3.03,5.03-5.57,6.45ZM146.97,158.51c.49.12.97.28,1.43.46-.06.51-.15,1.02-.27,1.51-.35-.68-.74-1.33-1.16-1.97ZM143.92,148.76c-2.65,0-5.19.48-7.54,1.35-2.35-.87-4.89-1.35-7.54-1.35-.49,0-.98.02-1.46.05,2.24-2.23,5.32-3.61,8.72-3.61s6.45,1.37,8.69,3.57c-.29-.01-.58-.02-.87-.02ZM128.84,149.82c2.11,0,4.14.32,6.06.91-3.24,1.48-6.05,3.73-8.2,6.52-1.03.17-2.02.44-2.95.82,0-.16-.02-.32-.02-.48,0-2.87.99-5.51,2.64-7.62.81-.1,1.64-.15,2.48-.15ZM122.84,159.68c.16,1.03.43,2.02.81,2.96-.95,2.44-1.48,5.09-1.48,7.86,0,.84.05,1.67.15,2.49-2.13-1.9-3.85-4.24-5.05-6.87,1.04-2.75,3.03-5.03,5.57-6.45ZM123.86,175.55c2.86,1.96,6.21,3.24,9.82,3.65.54.64,1.14,1.22,1.79,1.75-1.92,1.22-4.19,1.94-6.63,1.94-.53,0-1.05-.04-1.56-.11-1.58-2.13-2.76-4.58-3.42-7.23ZM128.84,183.94c2.79,0,5.39-.86,7.54-2.32,2.15,1.46,4.75,2.32,7.54,2.32.22,0,.43-.02.65-.03-2.19,2.57-5,4.59-8.19,5.84-3.19-1.25-6-3.28-8.19-5.84.22.01.43.03.65.03ZM143.92,182.88c-2.44,0-4.71-.72-6.63-1.94.68-.55,1.3-1.16,1.86-1.83,3.65-.51,7.02-1.94,9.86-4.04-.64,2.83-1.86,5.44-3.53,7.7-.51.06-1.03.11-1.56.11ZM150.5,172.42c.06-.63.09-1.27.09-1.92,0-3.05-.63-5.95-1.77-8.58.27-.8.47-1.64.59-2.5,2.57,1.28,4.64,3.42,5.81,6.05-1.09,2.64-2.71,5-4.73,6.95ZM128.84,191.18c-11.4,0-20.68-9.28-20.68-20.68,0-5.81,2.42-11.07,6.29-14.83-.06.63-.09,1.27-.09,1.92,0,3.05.63,5.95,1.77,8.58-.47,1.36-.73,2.82-.73,4.33,0,6.68,4.91,12.23,11.3,13.26,2.15,2.79,4.96,5.04,8.2,6.52-1.92.59-3.95.91-6.06.91ZM143.92,191.18c-2.11,0-4.14-.32-6.06-.91,3.24-1.48,6.05-3.73,8.2-6.52,6.4-1.03,11.3-6.57,11.3-13.26,0-1.79-.36-3.49-.99-5.05.95-2.44,1.48-5.09,1.48-7.86,0-.84-.05-1.67-.15-2.49,4.23,3.79,6.9,9.29,6.9,15.41,0,11.4-9.28,20.68-20.68,20.68Z"/><path class="f" d="M303.17,191.1c0-3.09,2.24-5.2,5.06-5.2,1.63,0,2.83.71,3.69,1.78l-.72.47c-.63-.87-1.73-1.46-2.97-1.46-2.33,0-4.16,1.79-4.16,4.41s1.82,4.41,4.16,4.41c1.24,0,2.33-.59,2.97-1.46l.72.45c-.89,1.1-2.06,1.79-3.69,1.79-2.82,0-5.06-2.11-5.06-5.2Z"/><path class="f" d="M320.9,191.34h-6.37v4.77h-.86v-10.05h.86v4.49h6.37v-4.49h.87v10.05h-.87v-4.77Z"/><path class="f" d="M324.26,186.07h.87v6.18c0,2.03,1.07,3.27,3.04,3.27s3.04-1.24,3.04-3.27v-6.18h.87v6.19c0,2.49-1.33,4.04-3.92,4.04s-3.92-1.57-3.92-4.04v-6.19Z"/><path class="f" d="M337.66,191.96h-2.21v4.16h-.86v-10.05h3.75c1.73,0,3.06,1.1,3.06,2.94s-1.3,2.83-2.79,2.89l2.91,4.22h-1.04l-2.82-4.16ZM338.26,186.86h-2.82v4.32h2.82c1.33,0,2.23-.9,2.23-2.17s-.9-2.15-2.23-2.15Z"/><path class="f" d="M343.16,191.1c0-3.09,2.24-5.2,5.06-5.2,1.63,0,2.83.71,3.69,1.78l-.72.47c-.63-.87-1.73-1.46-2.97-1.46-2.33,0-4.16,1.79-4.16,4.41s1.82,4.41,4.16,4.41c1.24,0,2.33-.59,2.97-1.46l.72.45c-.89,1.1-2.06,1.79-3.69,1.79-2.82,0-5.06-2.11-5.06-5.2Z"/><path class="f" d="M360.89,191.34h-6.37v4.77h-.86v-10.05h.86v4.49h6.37v-4.49h.87v10.05h-.87v-4.77Z"/><path class="f" d="M190.99,151.09c0,1.06.06,2.1.18,3.12.12,1.03.31,2.04.57,3.04l-1.67.32c-.24-1.77-.92-3.08-2.04-3.94-1.12-.86-2.7-1.28-4.74-1.28-1.88,0-3.41.46-4.59,1.37-1.18.91-1.77,2.09-1.77,3.53,0,2.37,2.51,4.39,7.53,6.08.67.21,1.18.39,1.54.51,2.3.8,3.99,1.82,5.07,3.07,1.08,1.25,1.63,2.79,1.63,4.63,0,2.84-1.08,5.14-3.23,6.9-2.15,1.76-5.01,2.64-8.56,2.64-1.36,0-2.68-.11-3.97-.33-1.29-.22-2.6-.57-3.93-1.04.01-.14.02-.31.03-.5,0-.19.01-.47.01-.85,0-1.01-.06-2.01-.17-3-.11-.98-.29-1.97-.51-2.95l1.93-.45c.24,2.34.98,4.05,2.2,5.14,1.23,1.08,3.05,1.63,5.46,1.63,2.11,0,3.83-.53,5.16-1.59,1.33-1.06,1.99-2.43,1.99-4.1,0-2.37-2.07-4.21-6.21-5.52-.59-.19-1.04-.34-1.37-.45-2.87-.93-4.92-2.06-6.16-3.4-1.24-1.34-1.86-3.05-1.86-5.14,0-2.45.97-4.5,2.91-6.14,1.94-1.64,4.37-2.46,7.3-2.46,1.07,0,2.15.09,3.25.26,1.1.17,2.44.47,4.02.9Z"/><path class="f" d="M212.15,149.46c2.17,0,4.11.31,5.81.93,1.7.62,3.25,1.58,4.63,2.88,1.65,1.57,2.92,3.39,3.8,5.46.88,2.07,1.32,4.27,1.32,6.59s-.46,4.61-1.39,6.72c-.93,2.11-2.25,3.93-3.96,5.46-1.37,1.23-2.96,2.19-4.78,2.88-1.82.69-3.64,1.04-5.47,1.04-2.28,0-4.38-.42-6.3-1.26-1.92-.84-3.61-2.09-5.08-3.74-1.34-1.51-2.36-3.21-3.07-5.09-.71-1.88-1.06-3.87-1.06-5.95,0-2.25.42-4.38,1.27-6.39.85-2,2.08-3.76,3.69-5.28,1.46-1.37,3.1-2.42,4.92-3.15,1.83-.73,3.72-1.09,5.67-1.09ZM222.98,166.07c0-4.15-1.07-7.56-3.21-10.22s-4.84-3.99-8.09-3.99-5.63,1.14-7.52,3.42c-1.89,2.28-2.84,5.34-2.84,9.16,0,4.25,1.07,7.74,3.22,10.46,2.15,2.72,4.83,4.09,8.06,4.09s5.62-1.17,7.52-3.52c1.9-2.35,2.86-5.48,2.86-9.41Z"/><path class="f" d="M236.87,179.21h.75c1.01,0,1.73-.12,2.16-.37.43-.25.73-.71.9-1.38.13-.44.22-2.05.27-4.81.05-2.77.07-7.08.07-12.93v-6.83h-4.32c-2.1,0-3.51.28-4.25.85-.73.56-1.28,1.75-1.64,3.56l-1.39-.3c.27-1.24.48-2.46.62-3.66.14-1.2.21-2.38.21-3.53.43.27,1.29.46,2.6.58,1.31.11,3.59.17,6.86.17h5.22c4.34,0,7.13-.05,8.38-.16,1.25-.11,2.12-.3,2.62-.59,0,.14,0,.37-.02.67-.01.31-.02.54-.02.7,0,.9.04,1.83.12,2.78.08.96.2,1.94.35,2.95l-1.35.26c-.17-1.61-.61-2.71-1.32-3.3-.71-.58-2.19-.91-4.46-.98h-4.04c-.01.81-.03,1.96-.04,3.45-.03,3.89-.04,6.51-.04,7.85,0,5.06.03,8.5.1,10.29.06,1.8.17,2.92.33,3.36.19.51.49.87.92,1.07.43.2,1.08.3,1.97.3h.75v1.5c-1.18-.06-2.3-.1-3.35-.13-1.05-.03-1.99-.04-2.81-.04-.73,0-1.62.01-2.69.04-1.06.03-2.22.07-3.46.13v-1.5Z"/><path class="f" d="M259.47,150.17c2.5.09,4.73.15,6.7.19,1.97.04,3.67.06,5.09.06,1.58,0,3.18-.02,4.8-.06,1.62-.04,3.26-.11,4.93-.19.01,1.07.06,2.17.13,3.28.07,1.12.16,2.24.26,3.37l-1.43.13c-.11-1.71-.64-2.87-1.58-3.48-.94-.61-2.97-.91-6.1-.91-.8,0-2.26.02-4.39.06-.43.01-.74.02-.94.02-.03,1.71-.07,3.81-.13,6.29-.06,2.48-.09,4.09-.11,4.84h.66c.84,0,1.89.01,3.16.03s2.11.03,2.54.03c2.07,0,3.43-.19,4.1-.58.66-.39,1.02-1.1,1.08-2.14l1.35.13c-.1.88-.17,1.7-.22,2.46-.05.76-.07,1.46-.07,2.1,0,.37.04,1.17.11,2.4.03.44.05.78.06,1.01l-1.39.04v-.17c0-1.21-.35-2.03-1.06-2.46-.71-.43-2.36-.64-4.95-.64h-5.35c0,.7,0,1.67-.02,2.9-.01,1.23-.02,2.12-.02,2.66,0,.94,0,1.92.02,2.94.01,1.02.04,2.21.09,3.58.71.09,1.52.15,2.43.19.91.04,1.9.06,2.99.06,3.58,0,5.94-.35,7.07-1.04,1.13-.69,2.04-2.02,2.71-3.99l1.54.51c-.43,1.18-.81,2.35-1.13,3.49-.33,1.14-.61,2.28-.86,3.4-2.24-.09-4.32-.15-6.25-.19-1.93-.04-3.67-.06-5.22-.06-2.13,0-5.55.08-10.27.24l-.77.02v-1.39c.1.01.2.02.29.03.09,0,.23.01.42.01,1.9,0,2.86-2.67,2.89-8,.01-1.34.03-2.39.04-3.15l.09-5.84c.01-1.26.02-2.48.03-3.66,0-1.18.01-2.47.01-3.85,0-1.23-.23-2.08-.68-2.55-.46-.47-1.27-.71-2.44-.71h-.17v-1.43Z"/><path class="f" d="M286.78,179.31c.1.01.2.02.29.03.09,0,.23.01.42.01,1.9,0,2.86-2.67,2.89-8,.01-1.34.03-2.39.04-3.15l.09-5.84c.01-1.26.02-2.48.03-3.66,0-1.18.01-2.47.01-3.85,0-1.23-.23-2.08-.68-2.55-.46-.47-1.27-.71-2.44-.71h-.17v-1.5c.96.07,1.9.12,2.84.15.93.03,1.84.04,2.73.04.96,0,2.14-.03,3.56-.1,1.42-.06,2.36-.1,2.84-.1,2.92,0,5.32.77,7.19,2.31,1.87,1.54,2.8,3.47,2.8,5.8,0,1.73-.47,3.26-1.4,4.61-.93,1.35-2.34,2.5-4.21,3.46l4,6.06c.14.23.36.56.64.98,2.77,4.22,5.04,6.33,6.81,6.33h.21v1.22c-.2.01-.5.04-.9.09-.93.09-1.61.13-2.03.13-1.51,0-2.71-.2-3.58-.61s-1.74-1.19-2.6-2.36c-.14-.19-.93-1.46-2.36-3.81s-2.88-4.57-4.33-6.66c-.54.06-1.12.1-1.73.13-.61.03-1.29.04-2.03.04h-1.28v6.57c0,2.14.22,3.49.66,4.06.44.56,1.32.85,2.63.85.04,0,.1,0,.17-.02.07-.01.13-.02.17-.02.06,0,.1,0,.14.02.04.01.06.02.07.02v1.41c-1.01-.06-2.02-.1-3.02-.13-1-.03-1.99-.04-2.97-.04-.53,0-1.27.01-2.23.04-.96.03-2.04.07-3.25.13v-1.39ZM294.39,165.62c.68.07,1.33.12,1.94.15.61.03,1.15.04,1.62.04.4,0,.86-.01,1.37-.03.51-.02,1.07-.06,1.67-.12,1.37-.83,2.38-1.79,3.02-2.88.64-1.09.96-2.39.96-3.91,0-1.98-.64-3.57-1.93-4.77-1.28-1.2-3.01-1.8-5.18-1.8-.59,0-1.16.03-1.71.07-.56.05-1.11.13-1.65.22-.04,1.77-.07,3.59-.09,5.46-.01,1.87-.02,4.39-.02,7.55Z"/><path class="f" d="M317.59,150.17c1,.06,1.99.1,2.97.13.98.03,1.95.04,2.89.04.8,0,1.69-.01,2.67-.04.98-.03,2.03-.07,3.12-.13v1.46h-.36c-.93,0-1.62.11-2.09.32-.46.21-.79.57-.97,1.07-.11.33-.2.86-.25,1.6-.05.74-.07,1.93-.07,3.59v14.93c0,1.68.04,2.87.12,3.56.08.69.2,1.19.37,1.52.19.36.52.61,1,.77.48.16,1.15.24,2.02.24h.45v1.5c-1.23-.06-2.36-.1-3.4-.13-1.04-.03-1.91-.04-2.61-.04-.83,0-1.76.01-2.8.04-1.04.03-2.13.07-3.27.13v-1.5h.43c.88,0,1.56-.08,2.03-.24.47-.16.8-.41.98-.77.2-.39.34-1.02.42-1.9.08-.88.12-2.47.12-4.77v-11.76c0-2.24-.03-3.84-.09-4.79-.06-.95-.15-1.61-.28-1.98-.17-.5-.48-.86-.93-1.07s-1.14-.32-2.09-.32h-.39v-1.46Z"/><path class="f" d="M346.59,150.17h3.68c1.85,5.67,3.61,10.84,5.28,15.53,1.66,4.68,2.97,8.2,3.93,10.56.57,1.36,1.06,2.19,1.48,2.51.41.31,1.01.47,1.78.47h.43v1.48c-1.11-.06-2.13-.1-3.05-.13-.92-.03-1.69-.04-2.32-.04-.8,0-1.68.01-2.63.04-.96.03-1.97.07-3.04.13v-1.48h.41c1.01,0,1.7-.12,2.08-.35.37-.24.56-.67.56-1.3,0-.23-.03-.48-.09-.76-.06-.28-.15-.61-.28-1l-2.1-6.56c-.54,0-1.28,0-2.23-.02-1.71-.04-2.81-.06-3.3-.06-.97,0-1.89,0-2.75.01-.86,0-1.76.03-2.69.05-1.01,2.56-1.71,4.42-2.08,5.6-.37,1.17-.56,2.01-.56,2.51,0,.7.19,1.19.56,1.47.37.28,1.03.42,1.99.42h.58v1.48c-1.04-.06-2.02-.1-2.92-.13-.91-.03-1.72-.04-2.43-.04-.57,0-1.28.01-2.14.04-.86.03-1.78.07-2.78.13v-1.46c1.01-.03,1.82-.23,2.41-.61.59-.38,1.11-1.01,1.55-1.9.8-1.67,2.21-5.01,4.25-10.03s4.18-10.53,6.43-16.54ZM347.55,154.19l-4.9,12.8c.27,0,.66,0,1.18.02,1.61.04,2.71.06,3.3.06.71,0,2-.02,3.87-.06.41-.01.73-.02.94-.02l-4.39-12.8Z"/></svg>