<?xml version="1.0" encoding="UTF-8"?><svg id="a" xmlns="http://www.w3.org/2000/svg" viewBox="0 0 355.15 213.14"><path d="M216.39,35.06c-3.53-18.49-19.81-32.52-39.32-32.52s-36.37,14.53-39.5,33.52c-8.51,7.35-13.91,18.2-13.91,30.3,0,22.08,17.96,40.04,40.04,40.04,4.88,0,9.55-.88,13.88-2.48,4.33,1.6,9,2.48,13.88,2.48,22.08,0,40.04-17.96,40.04-40.04,0-12.66-5.91-23.95-15.11-31.3ZM177.07,4.49c17.8,0,32.78,12.27,36.93,28.79-5.27-3.6-11.43-5.97-18.08-6.72-4.54-5.34-11.3-8.75-18.85-8.75s-14.44,3.46-18.98,8.89c-6.73.95-12.93,3.57-18.15,7.44,3.85-16.96,19.03-29.66,37.13-29.66ZM215.15,42.58c0,4.18-.69,8.21-1.94,11.97-2.55-4.69-6.59-8.44-11.46-10.68.02-.43.07-.86.07-1.3,0-5.11-1.56-9.86-4.22-13.8,6.32,1.03,12.12,3.62,16.99,7.36.36,2.1.56,4.25.56,6.44ZM214.26,66.35c0,10.63-7.32,19.56-17.18,22.07,3.06-4.61,5.18-9.88,6.11-15.55,4.21-3.63,7.66-8.12,10.06-13.19.65,2.11,1,4.35,1,6.67ZM141.55,61.02c2.6,4.99,6.22,9.36,10.59,12.85,1.01,5.29,3.06,10.22,5.94,14.55-9.86-2.51-17.18-11.44-17.18-22.07,0-1.84.24-3.62.66-5.33ZM139.39,37.06c4.82-4.01,10.64-6.84,17.02-8.08-2.58,3.91-4.09,8.58-4.09,13.6,0,.6.05,1.19.09,1.77-4.83,2.49-8.72,6.51-11.06,11.43-1.53-4.12-2.36-8.56-2.36-13.2,0-1.87.14-3.71.4-5.52ZM199.84,43.09c-1.43-.52-2.91-.9-4.44-1.15-3.96-5.13-9.14-9.28-15.09-12.01,3.53-1.08,7.27-1.67,11.15-1.67,1.17,0,2.32.06,3.46.16,3.09,3.89,4.95,8.8,4.95,14.14,0,.17-.02.34-.03.52ZM201.37,71.87c-4.82,4-10.64,6.84-17.02,8.08,2.58-3.91,4.09-8.58,4.09-13.6,0-.6-.05-1.19-.09-1.78,4.83-2.49,8.72-6.51,11.06-11.43,1.53,4.12,2.36,8.56,2.36,13.2,0,1.87-.14,3.71-.4,5.52ZM177.07,80.66c-1.17,0-2.32-.06-3.46-.16-3.09-3.89-4.95-8.8-4.95-14.14,0-.17.02-.34.03-.52,2.62.95,5.44,1.49,8.38,1.49,3.32,0,6.49-.67,9.38-1.86.01.3.04.58.04.88,0,5.29-1.83,10.15-4.86,14.02-1.5.18-3.02.28-4.57.28ZM179.76,82.51c-.68.68-1.42,1.3-2.18,1.89-.74-.57-1.45-1.17-2.12-1.83.53.02,1.07.04,1.61.04.91,0,1.8-.04,2.69-.1ZM153.37,66.35c0-4.18.69-8.21,1.94-11.98,2.55,4.69,6.59,8.44,11.46,10.68-.02.43-.07.86-.07,1.3,0,5.11,1.56,9.86,4.22,13.8-6.32-1.03-12.12-3.62-16.99-7.36-.36-2.1-.56-4.25-.56-6.44ZM160.82,43.75c.94-.12,1.9-.2,2.87-.2,4.49,0,8.67,1.32,12.2,3.57-4.77,3.87-8.06,9.48-8.94,15.86-4.74-2.36-8.54-6.3-10.71-11.14,1.2-2.89,2.74-5.6,4.57-8.09ZM155.27,49.24c-.37-1.2-.62-2.45-.79-3.73,1.15-.51,2.35-.92,3.59-1.23-1.05,1.58-1.99,3.24-2.81,4.96ZM162.5,41.66c4.04-4.73,9.2-8.45,15.08-10.76,5.88,2.31,11.04,6.04,15.08,10.76-.4-.02-.79-.06-1.2-.06-5.14,0-9.92,1.58-13.88,4.27-3.96-2.69-8.74-4.27-13.88-4.27-.4,0-.8.04-1.2.06ZM177.58,48.31c4.68,3.61,7.91,8.97,8.71,15.11-2.82,1.25-5.94,1.96-9.22,1.96-2.91,0-5.69-.57-8.26-1.57.7-6.3,3.99-11.82,8.77-15.5ZM188.12,62.5c-.97-6.18-4.21-11.6-8.86-15.38,3.53-2.25,7.71-3.57,12.2-3.57.97,0,1.93.08,2.87.2,1.58,2.13,2.93,4.44,4.04,6.88-1.92,5.06-5.57,9.27-10.25,11.87ZM197.08,44.28c.9.23,1.78.51,2.64.84-.11.95-.28,1.87-.5,2.78-.65-1.25-1.36-2.46-2.13-3.62ZM191.46,26.31c-4.88,0-9.55.88-13.88,2.48-4.33-1.6-9-2.48-13.88-2.48-.91,0-1.8.04-2.69.1,4.12-4.1,9.8-6.64,16.06-6.64s11.88,2.52,16,6.58c-.53-.02-1.07-.04-1.61-.04ZM163.69,28.27c3.88,0,7.62.59,11.15,1.67-5.96,2.73-11.13,6.87-15.09,12.01-1.89.3-3.72.81-5.44,1.51-.01-.29-.04-.58-.04-.88,0-5.29,1.83-10.15,4.86-14.02,1.5-.18,3.02-.28,4.57-.28ZM152.64,46.43c.3,1.89.79,3.72,1.5,5.45-1.75,4.49-2.72,9.38-2.72,14.48,0,1.55.1,3.08.27,4.59-3.91-3.51-7.09-7.81-9.3-12.65,1.92-5.06,5.57-9.27,10.25-11.87ZM154.52,75.65c5.27,3.6,11.43,5.97,18.08,6.72,1,1.17,2.09,2.25,3.29,3.22-3.53,2.25-7.71,3.57-12.2,3.57-.97,0-1.93-.08-2.87-.2-2.91-3.93-5.07-8.43-6.3-13.31ZM163.69,91.11c5.14,0,9.92-1.58,13.88-4.27,3.96,2.69,8.74,4.27,13.88,4.27.4,0,.8-.04,1.2-.06-4.03,4.72-9.2,8.45-15.08,10.76-5.88-2.31-11.04-6.03-15.08-10.76.4.02.79.06,1.2.06ZM191.46,89.15c-4.49,0-8.67-1.32-12.2-3.57,1.25-1.01,2.39-2.14,3.42-3.37,6.73-.95,12.92-3.57,18.15-7.44-1.18,5.21-3.43,10.02-6.5,14.18-.94.12-1.89.2-2.87.2ZM203.57,69.89c.1-1.17.16-2.34.16-3.54,0-5.61-1.16-10.95-3.26-15.8.51-1.48.87-3.02,1.09-4.61,4.74,2.36,8.54,6.3,10.71,11.14-2.01,4.85-4.99,9.2-8.7,12.8ZM163.69,104.44c-21,0-38.09-17.09-38.09-38.09,0-10.71,4.45-20.39,11.58-27.31-.1,1.17-.16,2.34-.16,3.54,0,5.61,1.16,10.95,3.26,15.8-.86,2.51-1.34,5.18-1.34,7.98,0,12.31,9.03,22.51,20.81,24.41,3.96,5.13,9.14,9.28,15.09,12.01-3.53,1.08-7.27,1.67-11.15,1.67ZM191.46,104.44c-3.88,0-7.62-.59-11.15-1.67,5.96-2.73,11.13-6.87,15.09-12.01,11.78-1.9,20.81-12.11,20.81-24.41,0-3.29-.66-6.42-1.83-9.3,1.75-4.49,2.72-9.37,2.72-14.48,0-1.55-.1-3.08-.27-4.59,7.79,6.98,12.71,17.11,12.71,28.37,0,21-17.08,38.09-38.09,38.09Z" fill="#c2912d"/><path d="M123.3,201.69c0-5.68,4.13-9.57,9.32-9.57,3,0,5.21,1.3,6.8,3.27l-1.33.86c-1.16-1.61-3.19-2.69-5.46-2.69-4.3,0-7.65,3.3-7.65,8.13s3.36,8.13,7.65,8.13c2.27,0,4.3-1.08,5.46-2.69l1.33.83c-1.64,2.02-3.8,3.3-6.8,3.3-5.19,0-9.32-3.88-9.32-9.57Z" fill="#1b2a41"/><path d="M155.95,202.14h-11.73v8.79h-1.58v-18.5h1.58v8.26h11.73v-8.26h1.61v18.5h-1.61v-8.79Z" fill="#1b2a41"/><path d="M162.13,192.43h1.61v11.37c0,3.74,1.97,6.02,5.6,6.02s5.6-2.27,5.6-6.02v-11.37h1.61v11.4c0,4.58-2.44,7.43-7.21,7.43s-7.21-2.88-7.21-7.43v-11.4Z" fill="#1b2a41"/><path d="M186.81,203.27h-4.08v7.65h-1.58v-18.5h6.91c3.19,0,5.63,2.02,5.63,5.41s-2.39,5.21-5.13,5.32l5.35,7.77h-1.91l-5.19-7.65ZM187.92,193.87h-5.19v7.96h5.19c2.44,0,4.1-1.66,4.1-3.99s-1.66-3.97-4.1-3.97Z" fill="#1b2a41"/><path d="M196.93,201.69c0-5.68,4.13-9.57,9.32-9.57,3,0,5.21,1.3,6.79,3.27l-1.33.86c-1.16-1.61-3.19-2.69-5.46-2.69-4.3,0-7.65,3.3-7.65,8.13s3.36,8.13,7.65,8.13c2.27,0,4.3-1.08,5.46-2.69l1.33.83c-1.64,2.02-3.8,3.3-6.79,3.3-5.19,0-9.32-3.88-9.32-9.57Z" fill="#1b2a41"/><path d="M229.57,202.14h-11.73v8.79h-1.58v-18.5h1.58v8.26h11.73v-8.26h1.61v18.5h-1.61v-8.79Z" fill="#1b2a41"/><path d="M36.21,122.1c0,1.94.11,3.86.33,5.75.22,1.89.57,3.76,1.04,5.6l-3.07.59c-.45-3.26-1.7-5.67-3.76-7.25-2.06-1.58-4.97-2.36-8.73-2.36-3.47,0-6.29.84-8.45,2.52-2.17,1.68-3.25,3.85-3.25,6.5,0,4.36,4.62,8.09,13.87,11.19,1.23.39,2.18.71,2.84.95,4.23,1.47,7.34,3.36,9.34,5.65,2,2.3,2.99,5.14,2.99,8.53,0,5.23-1.98,9.46-5.95,12.71-3.97,3.24-9.22,4.87-15.76,4.87-2.5,0-4.93-.2-7.31-.61-2.38-.41-4.79-1.04-7.23-1.91.03-.26.05-.57.06-.93.01-.35.02-.87.02-1.56,0-1.87-.11-3.7-.32-5.52-.21-1.81-.53-3.63-.95-5.44l3.55-.83c.45,4.31,1.8,7.46,4.06,9.46,2.26,2,5.61,2.99,10.05,2.99,3.89,0,7.05-.98,9.5-2.94,2.44-1.96,3.66-4.47,3.66-7.55,0-4.36-3.81-7.75-11.43-10.17-1.08-.34-1.92-.62-2.52-.83-5.28-1.71-9.06-3.8-11.35-6.27-2.29-2.47-3.43-5.62-3.43-9.46,0-4.52,1.79-8.29,5.36-11.31,3.57-3.02,8.05-4.53,13.44-4.53,1.97,0,3.97.16,5.99.47,2.02.32,4.49.87,7.41,1.65Z" fill="#1b2a41"/><path d="M75.18,119.1c3.99,0,7.56.57,10.7,1.71,3.14,1.14,5.98,2.91,8.53,5.3,3.05,2.89,5.38,6.24,6.99,10.05,1.62,3.81,2.42,7.86,2.42,12.14s-.85,8.49-2.56,12.37c-1.71,3.89-4.14,7.24-7.29,10.05-2.52,2.26-5.46,4.03-8.81,5.3-3.35,1.27-6.71,1.91-10.07,1.91-4.2,0-8.07-.78-11.6-2.32-3.53-1.55-6.65-3.85-9.36-6.9-2.47-2.78-4.35-5.91-5.65-9.38-1.3-3.47-1.95-7.12-1.95-10.95,0-4.15.78-8.07,2.34-11.76,1.56-3.69,3.83-6.93,6.8-9.71,2.68-2.52,5.7-4.45,9.06-5.79,3.36-1.34,6.84-2.01,10.44-2.01ZM95.12,149.68c0-7.64-1.97-13.92-5.91-18.82-3.94-4.9-8.91-7.35-14.9-7.35s-10.37,2.1-13.85,6.3c-3.48,4.2-5.22,9.83-5.22,16.87,0,7.83,1.98,14.25,5.93,19.27,3.95,5.02,8.9,7.53,14.84,7.53s10.34-2.16,13.85-6.48c3.51-4.32,5.26-10.09,5.26-17.32Z" fill="#1b2a41"/><path d="M120.7,173.88h1.38c1.87,0,3.19-.23,3.98-.69.79-.46,1.34-1.31,1.66-2.54.24-.81.4-3.77.49-8.87.09-5.1.14-13.03.14-23.8v-12.57h-7.96c-3.86,0-6.47.52-7.82,1.56-1.35,1.04-2.36,3.23-3.01,6.56l-2.56-.55c.5-2.29.88-4.53,1.14-6.74.26-2.21.39-4.37.39-6.5.79.5,2.38.85,4.79,1.06,2.4.21,6.61.32,12.63.32h9.61c7.99,0,13.13-.1,15.43-.3,2.3-.2,3.91-.56,4.83-1.08,0,.26-.01.68-.04,1.24-.03.57-.04.99-.04,1.28,0,1.66.07,3.36.22,5.12.14,1.76.36,3.57.65,5.44l-2.48.47c-.32-2.97-1.12-4.99-2.42-6.07-1.3-1.08-4.04-1.68-8.22-1.81h-7.45c-.03,1.5-.05,3.61-.08,6.34-.05,7.17-.08,11.99-.08,14.46,0,9.33.06,15.64.18,18.95s.32,5.37.61,6.19c.34.95.91,1.6,1.69,1.97.79.37,2,.55,3.63.55h1.38v2.76c-2.18-.1-4.24-.18-6.17-.24-1.93-.05-3.66-.08-5.18-.08-1.34,0-2.99.03-4.95.08-1.96.05-4.08.13-6.36.24v-2.76Z" fill="#1b2a41"/><path d="M162.31,120.4c4.6.16,8.71.28,12.33.35,3.63.08,6.75.12,9.38.12,2.92,0,5.86-.04,8.85-.12,2.98-.08,6.01-.2,9.08-.35.03,1.97.1,3.99.24,6.05.13,2.06.29,4.13.47,6.21l-2.64.24c-.21-3.15-1.18-5.29-2.92-6.4-1.73-1.12-5.48-1.67-11.23-1.67-1.47,0-4.16.04-8.08.12-.79.03-1.37.04-1.73.04-.05,3.15-.13,7.01-.24,11.59-.11,4.57-.17,7.54-.2,8.91h1.22c1.55,0,3.49.02,5.81.06s3.88.06,4.67.06c3.81,0,6.32-.35,7.55-1.06,1.22-.71,1.88-2.02,1.99-3.94l2.48.24c-.18,1.63-.32,3.14-.41,4.53-.09,1.39-.14,2.68-.14,3.86,0,.68.07,2.15.2,4.41.05.81.09,1.43.12,1.85l-2.56.08v-.32c0-2.23-.65-3.74-1.95-4.53-1.3-.79-4.34-1.18-9.12-1.18h-9.85c0,1.29-.01,3.07-.04,5.34-.03,2.27-.04,3.91-.04,4.91,0,1.73.01,3.54.04,5.42.03,1.88.08,4.08.16,6.6,1.31.16,2.8.28,4.47.35,1.67.08,3.5.12,5.5.12,6.59,0,10.94-.64,13.02-1.91,2.09-1.27,3.75-3.72,4.98-7.35l2.84.95c-.79,2.18-1.48,4.32-2.09,6.42-.6,2.1-1.13,4.19-1.58,6.27-4.12-.16-7.96-.28-11.51-.35-3.55-.08-6.75-.12-9.62-.12-3.91,0-10.22.14-18.91.43l-1.42.04v-2.56c.18.03.36.05.53.06.17.01.43.02.77.02,3.49,0,5.27-4.91,5.32-14.74.03-2.47.05-4.4.08-5.79l.16-10.76c.03-2.31.05-4.56.06-6.74.01-2.18.02-4.54.02-7.09,0-2.26-.42-3.82-1.26-4.69-.84-.87-2.34-1.3-4.49-1.3h-.32v-2.64Z" fill="#1b2a41"/><path d="M212.59,174.07c.18.03.36.05.53.06.17.01.43.02.77.02,3.49,0,5.27-4.91,5.32-14.74.03-2.47.05-4.4.08-5.79l.16-10.76c.03-2.31.05-4.56.06-6.74.01-2.18.02-4.54.02-7.09,0-2.26-.42-3.82-1.26-4.69-.84-.87-2.34-1.3-4.49-1.3h-.32v-2.76c1.76.13,3.5.22,5.22.28,1.72.05,3.4.08,5.02.08,1.76,0,3.95-.06,6.56-.18,2.61-.12,4.35-.18,5.22-.18,5.39,0,9.8,1.42,13.24,4.26,3.44,2.84,5.16,6.4,5.16,10.68,0,3.18-.86,6.01-2.58,8.49-1.72,2.48-4.3,4.6-7.74,6.36l7.37,11.15c.26.42.66,1.02,1.18,1.81,5.1,7.78,9.27,11.66,12.53,11.66h.39v2.25c-.37.03-.92.08-1.65.16-1.71.16-2.96.24-3.74.24-2.79,0-4.98-.37-6.6-1.12-1.62-.75-3.21-2.2-4.79-4.35-.26-.34-1.71-2.68-4.35-7.01s-5.3-8.42-7.98-12.26c-1,.11-2.06.18-3.19.24-1.13.05-2.38.08-3.74.08h-2.36v12.1c0,3.94.41,6.43,1.22,7.47.81,1.04,2.43,1.56,4.85,1.56.08,0,.18-.01.32-.04.13-.03.24-.04.32-.04.1,0,.19.01.26.04.07.03.11.04.14.04v2.6c-1.87-.1-3.72-.18-5.56-.24-1.84-.05-3.66-.08-5.48-.08-.97,0-2.34.03-4.1.08-1.76.05-3.76.13-5.99.24v-2.56ZM226.62,148.85c1.26.13,2.45.22,3.57.28,1.12.05,2.11.08,2.98.08.74,0,1.58-.02,2.52-.06.95-.04,1.97-.11,3.07-.22,2.52-1.52,4.37-3.29,5.56-5.3,1.18-2.01,1.77-4.41,1.77-7.19,0-3.65-1.18-6.58-3.55-8.79-2.36-2.21-5.54-3.31-9.54-3.31-1.08,0-2.13.05-3.15.14-1.02.09-2.04.23-3.03.41-.08,3.26-.13,6.61-.16,10.05-.03,3.44-.04,8.08-.04,13.91Z" fill="#1b2a41"/><path d="M269.33,120.4c1.84.11,3.66.18,5.48.24,1.81.05,3.59.08,5.32.08,1.47,0,3.11-.03,4.93-.08,1.81-.05,3.73-.13,5.75-.24v2.68h-.67c-1.71,0-2.99.2-3.84.59-.85.39-1.45,1.05-1.79,1.97-.21.6-.36,1.58-.45,2.94-.09,1.35-.14,3.56-.14,6.61v27.49c0,3.1.07,5.28.22,6.55.14,1.26.37,2.19.69,2.8.34.66.95,1.13,1.83,1.42.88.29,2.12.43,3.72.43h.83v2.76c-2.26-.1-4.35-.18-6.27-.24-1.92-.05-3.52-.08-4.81-.08-1.52,0-3.24.03-5.16.08-1.92.05-3.93.13-6.03.24v-2.76h.79c1.63,0,2.88-.14,3.74-.43.87-.29,1.47-.76,1.81-1.42.37-.71.62-1.87.77-3.49.14-1.62.22-4.54.22-8.77v-21.65c0-4.13-.05-7.07-.16-8.81-.11-1.75-.28-2.96-.51-3.65-.32-.92-.89-1.58-1.71-1.97-.83-.39-2.11-.59-3.84-.59h-.71v-2.68Z" fill="#1b2a41"/><path d="M322.72,120.4h6.78c3.42,10.44,6.65,19.97,9.71,28.59,3.06,8.62,5.47,15.1,7.23,19.44,1.05,2.5,1.96,4.04,2.72,4.61.76.58,1.85.87,3.27.87h.79v2.72c-2.05-.1-3.92-.18-5.62-.24-1.69-.05-3.12-.08-4.28-.08-1.47,0-3.09.03-4.85.08-1.76.05-3.63.13-5.6.24v-2.72h.75c1.87,0,3.14-.22,3.82-.65.68-.43,1.02-1.23,1.02-2.39,0-.42-.05-.89-.16-1.4-.11-.51-.28-1.13-.51-1.84l-3.86-12.08c-1,0-2.36-.01-4.1-.04-3.15-.08-5.18-.12-6.07-.12-1.79,0-3.47,0-5.06.02-1.59.01-3.24.05-4.95.1-1.87,4.71-3.14,8.15-3.82,10.31-.68,2.16-1.02,3.7-1.02,4.62,0,1.29.34,2.19,1.02,2.71.68.51,1.9.77,3.66.77h1.06v2.72c-1.92-.1-3.71-.18-5.38-.24-1.67-.05-3.16-.08-4.47-.08-1.05,0-2.36.03-3.94.08-1.58.05-3.28.13-5.12.24v-2.68c1.87-.05,3.34-.43,4.43-1.12,1.09-.7,2.04-1.86,2.86-3.49,1.47-3.08,4.08-9.23,7.82-18.47,3.74-9.24,7.69-19.4,11.84-30.46ZM324.5,127.81l-9.02,23.56c.5,0,1.22.01,2.17.04,2.97.08,4.99.12,6.07.12,1.31,0,3.69-.04,7.13-.12.76-.03,1.34-.04,1.73-.04l-8.08-23.56Z" fill="#1b2a41"/></svg>