<?xml version="1.0" encoding="UTF-8"?><svg id="a" xmlns="http://www.w3.org/2000/svg" viewBox="0 0 351.86 94.42"><path d="M122.51,83.14c0-5.6,4.07-9.42,9.17-9.42,2.95,0,5.13,1.28,6.69,3.22l-1.31.85c-1.15-1.58-3.14-2.65-5.38-2.65-4.23,0-7.53,3.25-7.53,8s3.3,8,7.53,8c2.24,0,4.23-1.06,5.38-2.65l1.31.82c-1.61,1.99-3.74,3.25-6.69,3.25-5.1,0-9.17-3.82-9.17-9.42Z" fill="#1b2a41"/><path d="M154.64,83.58h-11.55v8.65h-1.56v-18.21h1.56v8.13h11.55v-8.13h1.58v18.21h-1.58v-8.65Z" fill="#1b2a41"/><path d="M160.73,74.03h1.58v11.19c0,3.68,1.94,5.92,5.51,5.92s5.51-2.24,5.51-5.92v-11.19h1.58v11.22c0,4.5-2.4,7.32-7.1,7.32s-7.1-2.84-7.1-7.32v-11.22Z" fill="#1b2a41"/><path d="M185.02,84.7h-4.01v7.53h-1.56v-18.21h6.8c3.14,0,5.54,1.99,5.54,5.32s-2.35,5.13-5.05,5.24l5.27,7.64h-1.88l-5.1-7.53ZM186.11,75.45h-5.1v7.83h5.1c2.4,0,4.04-1.64,4.04-3.93s-1.64-3.9-4.04-3.9Z" fill="#1b2a41"/><path d="M194.98,83.14c0-5.6,4.07-9.42,9.17-9.42,2.95,0,5.13,1.28,6.69,3.22l-1.31.85c-1.15-1.58-3.14-2.65-5.38-2.65-4.23,0-7.53,3.25-7.53,8s3.3,8,7.53,8c2.24,0,4.23-1.06,5.38-2.65l1.31.82c-1.61,1.99-3.74,3.25-6.69,3.25-5.1,0-9.17-3.82-9.17-9.42Z" fill="#1b2a41"/><path d="M227.11,83.58h-11.54v8.65h-1.56v-18.21h1.56v8.13h11.54v-8.13h1.58v18.21h-1.58v-8.65Z" fill="#1b2a41"/><path d="M36.79,4.81c0,1.91.11,3.8.33,5.66.22,1.86.56,3.7,1.03,5.51l-3.02.58c-.44-3.21-1.67-5.58-3.7-7.14-2.03-1.55-4.89-2.33-8.59-2.33-3.41,0-6.19.83-8.32,2.48-2.13,1.65-3.2,3.79-3.2,6.4,0,4.29,4.55,7.96,13.65,11.01,1.21.39,2.15.7,2.79.93,4.16,1.45,7.23,3.3,9.19,5.57,1.96,2.26,2.95,5.06,2.95,8.4,0,5.15-1.95,9.31-5.86,12.51-3.9,3.19-9.08,4.79-15.51,4.79-2.46,0-4.85-.2-7.19-.6-2.34-.4-4.71-1.03-7.12-1.88.03-.26.04-.56.06-.91.01-.35.02-.86.02-1.53,0-1.84-.1-3.65-.31-5.43-.21-1.78-.52-3.57-.93-5.35l3.49-.81c.44,4.24,1.77,7.34,3.99,9.31,2.22,1.97,5.52,2.95,9.89,2.95,3.83,0,6.94-.96,9.35-2.89,2.4-1.93,3.61-4.4,3.61-7.43,0-4.29-3.75-7.63-11.25-10.01-1.06-.34-1.89-.61-2.48-.81-5.2-1.68-8.92-3.74-11.17-6.17-2.25-2.43-3.37-5.53-3.37-9.31,0-4.45,1.76-8.16,5.27-11.13,3.52-2.97,7.92-4.46,13.22-4.46,1.94,0,3.9.16,5.9.47,1.99.31,4.42.85,7.29,1.63Z" fill="#1b2a41"/><path d="M75.15,1.86c3.93,0,7.44.56,10.53,1.69,3.09,1.12,5.89,2.86,8.4,5.22,3,2.84,5.29,6.14,6.88,9.89,1.59,3.75,2.39,7.73,2.39,11.95s-.84,8.35-2.52,12.18c-1.68,3.83-4.07,7.12-7.18,9.89-2.48,2.22-5.37,3.96-8.67,5.22-3.3,1.25-6.6,1.88-9.91,1.88-4.14,0-7.94-.76-11.42-2.29-3.48-1.53-6.55-3.79-9.21-6.79-2.43-2.74-4.29-5.82-5.57-9.23-1.28-3.41-1.92-7.01-1.92-10.78,0-4.08.77-7.94,2.31-11.58,1.54-3.63,3.77-6.82,6.69-9.56,2.64-2.48,5.61-4.38,8.92-5.7,3.31-1.32,6.74-1.98,10.28-1.98ZM94.78,31.95c0-7.52-1.94-13.7-5.82-18.52-3.88-4.82-8.76-7.23-14.66-7.23s-10.21,2.07-13.63,6.21c-3.43,4.14-5.14,9.67-5.14,16.6,0,7.71,1.95,14.03,5.84,18.96,3.89,4.94,8.76,7.41,14.6,7.41s10.18-2.13,13.63-6.38c3.45-4.25,5.18-9.93,5.18-17.05Z" fill="#1b2a41"/><path d="M119.95,55.77h1.36c1.84,0,3.14-.23,3.92-.68.78-.45,1.32-1.29,1.63-2.5.23-.8.39-3.71.48-8.73.09-5.02.14-12.82.14-23.43v-12.37h-7.83c-3.8,0-6.37.51-7.7,1.53-1.33,1.02-2.32,3.17-2.97,6.46l-2.52-.54c.49-2.25.87-4.46,1.12-6.63.26-2.17.39-4.3.39-6.4.78.49,2.35.84,4.71,1.05,2.37.21,6.51.31,12.43.31h9.46c7.86,0,12.92-.1,15.18-.29,2.26-.19,3.85-.55,4.75-1.07,0,.26-.01.67-.04,1.22-.03.56-.04.98-.04,1.26,0,1.63.07,3.31.21,5.04.14,1.73.35,3.52.64,5.35l-2.44.47c-.31-2.92-1.11-4.91-2.39-5.97-1.28-1.06-3.98-1.65-8.09-1.78h-7.33c-.03,1.47-.05,3.56-.08,6.24-.05,7.06-.08,11.8-.08,14.23,0,9.18.06,15.4.17,18.65s.32,5.29.6,6.09c.34.93.89,1.58,1.67,1.94.78.36,1.96.54,3.57.54h1.36v2.71c-2.15-.1-4.17-.18-6.07-.23-1.9-.05-3.6-.08-5.1-.08-1.32,0-2.94.03-4.87.08-1.93.05-4.01.13-6.26.23v-2.71Z" fill="#1b2a41"/><path d="M160.9,3.14c4.52.16,8.57.27,12.14.35,3.57.08,6.64.12,9.23.12,2.87,0,5.77-.04,8.71-.12,2.93-.08,5.91-.19,8.94-.35.03,1.94.1,3.92.23,5.95.13,2.03.28,4.07.47,6.11l-2.6.23c-.21-3.1-1.16-5.2-2.87-6.3-1.71-1.1-5.39-1.65-11.05-1.65-1.45,0-4.1.04-7.95.12-.78.03-1.34.04-1.71.04-.05,3.1-.13,6.9-.23,11.4-.1,4.5-.17,7.42-.19,8.76h1.2c1.53,0,3.43.02,5.72.06,2.29.04,3.82.06,4.6.06,3.75,0,6.22-.35,7.43-1.05,1.2-.7,1.85-1.99,1.96-3.88l2.44.23c-.18,1.6-.32,3.09-.41,4.46-.09,1.37-.14,2.64-.14,3.8,0,.67.06,2.12.19,4.34.05.8.09,1.41.12,1.82l-2.52.08v-.31c0-2.2-.64-3.68-1.92-4.46-1.28-.78-4.27-1.16-8.98-1.16h-9.7c0,1.27-.01,3.02-.04,5.26-.03,2.24-.04,3.85-.04,4.83,0,1.71.01,3.48.04,5.33.03,1.85.08,4.01.16,6.5,1.29.16,2.76.27,4.4.35,1.64.08,3.45.12,5.41.12,6.49,0,10.76-.63,12.82-1.88,2.06-1.25,3.69-3.67,4.91-7.23l2.79.93c-.78,2.15-1.46,4.25-2.06,6.32-.6,2.07-1.11,4.12-1.55,6.17-4.06-.16-7.83-.27-11.32-.35-3.49-.08-6.65-.12-9.46-.12-3.85,0-10.06.14-18.62.43l-1.4.04v-2.52c.18.03.36.05.52.06.17.01.42.02.76.02,3.44,0,5.18-4.83,5.24-14.5.03-2.43.05-4.33.08-5.7l.16-10.59c.03-2.27.04-4.49.06-6.63.01-2.15.02-4.47.02-6.98,0-2.22-.41-3.76-1.24-4.62-.83-.85-2.3-1.28-4.42-1.28h-.31v-2.6Z" fill="#1b2a41"/><path d="M210.39,55.96c.18.03.36.05.52.06.17.01.42.02.76.02,3.44,0,5.18-4.83,5.24-14.5.03-2.43.05-4.33.08-5.7l.16-10.59c.03-2.27.04-4.49.06-6.63.01-2.15.02-4.47.02-6.98,0-2.22-.41-3.76-1.24-4.62-.83-.85-2.3-1.28-4.42-1.28h-.31v-2.71c1.73.13,3.45.22,5.14.27,1.69.05,3.34.08,4.94.08,1.73,0,3.88-.06,6.46-.17,2.57-.12,4.29-.17,5.14-.17,5.3,0,9.64,1.4,13.03,4.19,3.39,2.79,5.08,6.3,5.08,10.51,0,3.13-.85,5.91-2.54,8.36-1.69,2.44-4.23,4.53-7.62,6.26l7.25,10.98c.26.41.65,1.01,1.16,1.78,5.02,7.65,9.13,11.48,12.33,11.48h.39v2.21c-.36.03-.91.08-1.63.16-1.68.16-2.91.23-3.68.23-2.74,0-4.91-.37-6.5-1.11-1.59-.74-3.16-2.17-4.71-4.29-.26-.34-1.69-2.64-4.29-6.9-2.6-4.27-5.22-8.29-7.85-12.06-.98.1-2.03.18-3.14.23-1.11.05-2.34.08-3.68.08h-2.33v11.91c0,3.88.4,6.33,1.2,7.35.8,1.02,2.39,1.53,4.77,1.53.08,0,.18-.01.31-.04.13-.03.23-.04.31-.04.1,0,.19.01.25.04.06.03.11.04.14.04v2.56c-1.84-.1-3.66-.18-5.47-.23-1.81-.05-3.61-.08-5.39-.08-.96,0-2.3.03-4.03.08-1.73.05-3.7.13-5.9.23v-2.52ZM224.2,31.14c1.24.13,2.41.22,3.51.27,1.1.05,2.08.08,2.93.08.72,0,1.55-.02,2.48-.06.93-.04,1.94-.11,3.03-.21,2.48-1.5,4.3-3.24,5.47-5.22,1.16-1.98,1.75-4.34,1.75-7.08,0-3.59-1.16-6.48-3.49-8.65-2.33-2.17-5.46-3.26-9.39-3.26-1.06,0-2.09.05-3.1.14-1.01.09-2,.23-2.99.41-.08,3.21-.13,6.5-.16,9.89-.03,3.39-.04,7.95-.04,13.69Z" fill="#1b2a41"/><path d="M266.24,3.14c1.81.1,3.61.18,5.39.23,1.78.05,3.53.08,5.24.08,1.45,0,3.06-.03,4.85-.08,1.78-.05,3.67-.13,5.66-.23v2.64h-.66c-1.68,0-2.94.19-3.78.58-.84.39-1.43,1.03-1.76,1.94-.21.6-.36,1.56-.45,2.89-.09,1.33-.14,3.5-.14,6.5v27.05c0,3.05.07,5.2.21,6.44.14,1.24.37,2.16.68,2.76.34.65.94,1.11,1.8,1.4.87.28,2.09.43,3.66.43h.81v2.71c-2.22-.1-4.28-.18-6.17-.23-1.89-.05-3.47-.08-4.73-.08-1.5,0-3.19.03-5.08.08-1.89.05-3.87.13-5.93.23v-2.71h.78c1.6,0,2.83-.14,3.68-.43.85-.28,1.45-.75,1.78-1.4.36-.7.61-1.84.76-3.44.14-1.59.21-4.47.21-8.64v-21.31c0-4.06-.05-6.95-.16-8.67-.1-1.72-.27-2.92-.5-3.59-.31-.91-.87-1.55-1.69-1.94-.81-.39-2.07-.58-3.78-.58h-.7v-2.64Z" fill="#1b2a41"/><path d="M318.79,3.14h6.67c3.36,10.27,6.55,19.65,9.56,28.14,3.01,8.49,5.38,14.86,7.12,19.13,1.03,2.46,1.93,3.97,2.68,4.54.75.57,1.82.85,3.22.85h.78v2.68c-2.02-.1-3.86-.18-5.53-.23-1.67-.05-3.07-.08-4.21-.08-1.45,0-3.04.03-4.77.08-1.73.05-3.57.13-5.51.23v-2.68h.74c1.84,0,3.09-.21,3.76-.64.67-.43,1.01-1.21,1.01-2.35,0-.41-.05-.87-.16-1.38-.1-.51-.27-1.11-.5-1.81l-3.8-11.89c-.98,0-2.33-.01-4.03-.04-3.1-.08-5.09-.12-5.97-.12-1.76,0-3.42,0-4.98.02-1.56.01-3.19.05-4.87.1-1.84,4.64-3.09,8.02-3.76,10.14-.67,2.12-1.01,3.64-1.01,4.55,0,1.27.34,2.16,1.01,2.66.67.51,1.87.76,3.61.76h1.05v2.68c-1.89-.1-3.65-.18-5.29-.23-1.64-.05-3.11-.08-4.4-.08-1.03,0-2.33.03-3.88.08-1.55.05-3.23.13-5.04.23v-2.64c1.84-.05,3.29-.42,4.36-1.11,1.07-.69,2.01-1.83,2.81-3.44,1.45-3.03,4.01-9.09,7.7-18.18,3.68-9.09,7.57-19.09,11.65-29.98ZM320.53,10.43l-8.88,23.19c.49,0,1.2.01,2.13.04,2.92.08,4.91.12,5.97.12,1.29,0,3.63-.04,7.02-.12.75-.03,1.32-.04,1.71-.04l-7.95-23.19Z" fill="#1b2a41"/></svg>